<?xml version="1.0" encoding="UTF-8"?>
<svg id="Layer_1" xmlns="http://www.w3.org/2000/svg" version="1.1" viewBox="0 0 38.77 23.15">
  <!-- Generator: Adobe Illustrator 29.3.1, SVG Export Plug-In . SVG Version: 2.1.0 Build 151)  -->
  <defs>
    <style>
      .st0 {
        fill: #fff;
      }

      .st0, .st1 {
        isolation: isolate;
      }

      .st2 {
        fill: none;
      }
    </style>
  </defs>
  <g id="formkit:arrowright" class="st1">
    <rect id="formkit:arrowright-2" class="st2" x="3.02" y="2.37" width="32.73" height="18.41"/>
    <path id="Vector" class="st0" d="M10.18,12.6c-.56,0-1.02-.44-1.02-1,0,0,0-.01,0-.02,0-.56.44-1.02,1-1.02,0,0,.01,0,.02,0h18.41c.56,0,1.02.44,1.02,1,0,0,0,.01,0,.02,0,.56-.44,1.02-1,1.02,0,0-.01,0-.02,0H10.18Z"/>
    <path id="Vector-2" class="st0" d="M23.09,19.68c-.12-.05-.23-.13-.33-.23-.4-.39-.41-1.03-.02-1.43,0,0,.01-.01.02-.02l6.44-6.45-6.44-6.44c-.4-.39-.41-1.03-.02-1.43,0,0,.01-.01.02-.02.39-.4,1.03-.41,1.43-.02,0,0,.01.01.02.02l7.16,7.16c.4.39.41,1.03.02,1.43,0,0-.01.01-.02.02l-7.16,7.16c-.19.19-.45.3-.72.31l-.02.02c-.13,0-.27-.02-.39-.08Z"/>
  </g>
</svg>