<?xml version="1.0" encoding="UTF-8"?>
<svg id="Layer_1" xmlns="http://www.w3.org/2000/svg" version="1.1" xmlns:xlink="http://www.w3.org/1999/xlink" viewBox="0 0 88.11 89.87">
  <!-- Generator: Adobe Illustrator 29.3.1, SVG Export Plug-In . SVG Version: 2.1.0 Build 151)  -->
  <defs>
    <style>
      .st0 {
        fill: #ca9ce1;
      }

      .st0, .st1, .st2 {
        isolation: isolate;
      }

      .st1 {
        fill: #fff;
      }

      .st3 {
        fill: none;
      }

      .st4 {
        clip-path: url(#clippath);
      }
    </style>
    <clipPath id="clippath">
      <rect class="st3" x="24.99" y="25.87" width="38.12" height="38.12"/>
    </clipPath>
  </defs>
  <g id="Icon" class="st2">
    <path id="Ellipse_14" class="st0" d="M10.03,44.94c0-18.79,15.24-34.03,34.03-34.03s34.03,15.24,34.03,34.03-15.24,34.03-34.03,34.03S10.03,63.73,10.03,44.94h0Z"/>
    <g class="st4">
      <g id="emoji_objects" class="st2">
        <path id="emoji_objects-2" class="st1" d="M42.19,60.33c-.55-.32-1-.78-1.31-1.33-1.75,0-3.17-1.42-3.18-3.18v-5.64c-1.57-1.04-2.85-2.44-3.75-4.09-.94-1.69-1.42-3.59-1.41-5.52-.06-3.07,1.16-6.02,3.36-8.16,2.14-2.2,5.09-3.41,8.16-3.36,3.07-.06,6.02,1.16,8.16,3.36,2.2,2.14,3.41,5.09,3.36,8.16.02,1.94-.46,3.86-1.41,5.56-.91,1.63-2.19,3.02-3.75,4.05v5.64c0,1.75-1.42,3.17-3.18,3.18-1.03,1.75-3.28,2.35-5.04,1.33h0ZM47.23,55.82v-1.43h-6.35v1.43h6.35ZM47.23,52.8v-1.51h-6.35v1.51h6.35ZM42.86,48.11v-4.29l-3.49-3.49,1.67-1.67,3.02,3.02,3.02-3.02,1.66,1.67-3.49,3.49v4.29h2.3c1.42-.68,2.63-1.73,3.49-3.04.9-1.33,1.37-2.9,1.35-4.51.05-2.22-.83-4.36-2.42-5.92-1.55-1.59-3.69-2.47-5.92-2.42-2.22-.04-4.36.83-5.92,2.42-1.59,1.55-2.47,3.69-2.42,5.92-.02,1.6.45,3.18,1.35,4.51.87,1.31,2.08,2.36,3.49,3.04h2.3Z"/>
      </g>
    </g>
  </g>
</svg>