<?xml version="1.0" encoding="UTF-8"?>
<svg id="Layer_1" xmlns="http://www.w3.org/2000/svg" version="1.1" xmlns:xlink="http://www.w3.org/1999/xlink" viewBox="0 0 217 70.18">
  <!-- Generator: Adobe Illustrator 29.3.1, SVG Export Plug-In . SVG Version: 2.1.0 Build 151)  -->
  <defs>
    <style>
      .st0 {
        fill: #fff;
      }

      .st1 {
        fill: none;
      }

      .st2 {
        clip-path: url(#clippath);
      }
    </style>
    <clipPath id="clippath">
      <rect class="st1" x="14.02" y="14.96" width="188.97" height="40.27"/>
    </clipPath>
  </defs>
  <g class="st2">
    <g id="Group_163">
      <path id="Path_288" class="st0" d="M92.14,50.91c-.38.22-.78.38-1.19.5-.9.3-1.84.46-2.78.47h-8.07v-15.06c.66.14,1.33.2,2.01.19,1.03-.02,2.06-.11,3.08-.27,1.1-.18,2.22-.28,3.34-.29.88,0,1.76.11,2.63.29l.42.09v-.89l-.26-.07c-.95-.24-1.94-.36-2.92-.35-1.1.02-2.2.13-3.29.33-.98.18-1.98.29-2.97.31-.68,0-1.35-.08-2.01-.22v-17.18h8.02c.95.02,1.89.2,2.78.52.4.13.79.29,1.18.47l.5.24v-2.11h-19.5l-.07.69c.64.12,2.75.67,2.75,2.89v27.75c-.08,1.54-1.28,2.77-2.82,2.89l.04.69h19.67v-2.2l-.52.33Z"/>
      <path id="Path_289" class="st0" d="M92.13,28.84h9.84c-1.67.13-3,1.46-3.13,3.13v12.48c0,5.14,2.7,7.14,5.43,7.14,1.92-.04,3.74-.85,5.05-2.25,3.34-3.34,7.14-9.25,11.7-13.9,2.35-2.49,6.12-5.64,9.4-6.41.64-.13,1.3-.19,1.95-.19.35,0,.69.05,1.02.05,2.99.24,5.64,2.4,6.47,6.31.2.78.3,1.59.29,2.4v11.66c.12,1.67,1.42,3.01,3.08,3.18h-9.84c1.67-.12,3.01-1.45,3.13-3.13v-12.54c0-4.94-2.4-6.85-5-7.11h-.35c-2.25,0-4.6,1.42-6.6,3.04v16.55c.12,1.67,1.42,3.01,3.08,3.18h-9.79c1.58-.15,2.86-1.36,3.08-2.94v-13.56c-2.35,2.47-4.54,5.08-6.55,7.83v5.67c.22,1.62,1.55,2.87,3.18,2.99h-2.59c-2.25.07-4.13-1.7-4.2-3.95,0-.08,0-.17,0-.25-.95,1.29-2.15,2.37-3.53,3.18-1.26.68-2.68,1.02-4.11.99-.39,0-.79,0-1.18-.05-3.67-.24-6.76-3.58-6.76-9.01v-11.36c-.02-.8-.36-1.56-.93-2.11-.6-.54-1.34-.9-2.14-1.04M107.7,28.84h9.65c-1.54.14-2.77,1.35-2.94,2.89v10.03c-1.31,1.49-2.52,3.06-3.63,4.7v-14.47c-.02-.8-.36-1.56-.93-2.11-.6-.54-1.35-.9-2.14-1.04M117.83,28.84h6.76v2.01c-1.28.93-2.5,1.96-3.63,3.08v-1.85c0-1.33-.82-2.51-2.06-2.99-.35-.11-.71-.2-1.07-.24"/>
      <path id="Path_290" class="st0" d="M144.25,41.32c0-2.55.79-5.04,2.25-7.14,2.25-3.26,5.93-5.25,9.89-5.34h.35c4.89,0,9.99,2.94,10.91,9.01.1.7.14,1.4.14,2.11,0,4.08-1.9,7.93-5.14,10.43-1.57,1.12-3.38,1.88-5.29,2.2-.79.15-1.59.23-2.4.24-.33,0-.66-.01-.98-.05-4.89-.37-8.86-4.1-9.54-8.96-.12-.82-.18-1.66-.17-2.49M147.54,40.01c-.02.7.02,1.41.1,2.11.4,3.87,1.71,6.52,3.47,8.13,1.37,1.28,3.18,1.98,5.05,1.95.41,0,.82-.04,1.23-.1,2.59-.36,4.81-2.03,5.88-4.41.9-1.98,1.34-4.14,1.28-6.31,0-.59-.05-1.23-.1-1.82-.4-3.91-2.06-7.3-4.6-9.2-1.08-.66-2.32-1-3.58-.99-3.42,0-7,2.25-8.26,7.05-.32,1.16-.48,2.37-.47,3.58"/>
      <path id="Path_291" class="st0" d="M172.93,36.62v-4.91c0-2.16-1.95-2.99-3.18-3.23.73.05,1.45.15,2.16.29.55.09,1.1.14,1.66.14.39,0,.79-.04,1.18-.1,1.15-.22,2.16-.9,2.78-1.9.71-1.03,1.15-2.23,1.28-3.48v-.1c-.11-1.46-1.17-2.68-2.61-2.97l-.03-.02-.16-.07-.07-.03-.07-.03-.16-.05-.16-.03-.07-.02-.07-.02-.16-.02c-.05,0-.1-.02-.16-.02h-.02c1.93-.16,3.67,1.17,4.01,3.08v.19c-.16,1.34-.58,2.64-1.23,3.82-.73,1.31-1.2,2.76-1.37,4.25v17.51c.05,1.71,1.37,2.78,3.08,3.13h-9.84c1.65-.13,2.97-1.43,3.13-3.08v-8.02c.02-1.76.05-2.99.05-4.3"/>
      <path id="Path_292" class="st0" d="M175.77,21.21l-.11-.07-.05-.03-.07-.03-.12-.07-.14-.05-.07-.03-.07-.02-.14-.05-.14-.03-.07-.02-.07-.02-.14-.03-.14-.02-.07-.02h-.07c-.38-.04-.77,0-1.14.1-.34.1-.66.26-.93.48.52-.63,1.3-.97,2.11-.92h.17c.05,0,.11,0,.16.02l.16.02.07.02.07.02.16.03.16.05.07.03.07.03.16.07.03.02c-.22-.07-.45-.12-.67-.16.33.15.62.38.83.67"/>
      <path id="Path_293" class="st0" d="M180.04,45.78v-.48c.14-3.67,2.46-5.97,5.72-7.49-.26-.79-.4-1.62-.4-2.46-.07-1.13.2-2.26.78-3.23,1.18-2.14,3.49-3.4,5.93-3.23,3.77,0,7.83,2.16,7.83,8.18v12.19c0,1.71,1.31,2.83,3.08,3.18h-3.04c-2.03,0-3.67-1.64-3.67-3.67,0-.02,0-.03,0-.05-2.4,2.16-5.34,4.06-8.66,4.06-3.13,0-5.88-1.37-7.05-4.2-.38-.88-.56-1.84-.52-2.8M183.27,45.04c0,1,.16,1.99.48,2.94.83,2.54,2.7,4.17,4.84,4.17.23,0,.46,0,.69-.05,2.66-.45,5.11-1.73,7-3.67v-11.45c-1.15-.33-2.33-.49-3.53-.48-5,0-8.56,3.04-9.35,7.11-.09.47-.14.95-.14,1.43M185.62,35.6c0,.72.11,1.43.35,2.11,2.07-.9,4.3-1.38,6.55-1.42,1.27,0,2.53.15,3.77.43v-.4c.02-1.13-.13-2.25-.43-3.34-.54-1.9-1.76-3.72-4.25-3.77-3.13-.06-5.74,2.36-5.93,5.48-.04.3-.06.6-.05.9"/>
      <path id="Path_294" class="st0" d="M171.13,23.51c0,1.91,1.55,3.46,3.46,3.46s3.46-1.55,3.46-3.46-1.55-3.46-3.46-3.46h0c-1.91,0-3.46,1.55-3.46,3.46"/>
      <path id="Path_295" class="st0" d="M51.98,23.21c0-.13-.02-.26-.03-.39,0-.04,0-.08-.01-.12-.03-.27-.08-.54-.14-.8-.07-.29-.17-.58-.28-.86-.16-.52-.71-.81-1.22-.66-.52.16-.81.71-.66,1.22.16.52.71.81,1.22.66.28-.09.51-.29.62-.57.26.99.32,2.02.2,3.04,0,.1-.02.2-.03.29-.03.23-.05.43-.08.58-.01.08-.02.15-.03.23v.06s0,.02,0,.02c0,.01,0,.02,0,.03,0,.06-.02.12-.03.18,0,.03-.01.06-.03.09-.01.03-.02.06-.03.1-.02.06-.05.12-.08.18-.12.24-.31.44-.53.59-.44.29-.98.35-1.47.16-.25-.1-.47-.25-.65-.46-.04-.05-.08-.1-.12-.16-.03-.05-.06-.11-.09-.16l-.04-.08s-.01-.02-.01-.03v-.02s-.04-.08-.04-.08l-.27-.63c-.18-.42-.35-.84-.53-1.26l-.26-.63-.13-.32-.13-.3c-.08-.2-.18-.39-.27-.58-.05-.1-.1-.19-.15-.28s-.1-.19-.15-.28l-.16-.28-.16-.27-.08-.14-.1-.12-.18-.27-.18-.27-.1-.13-.1-.13-.2-.25-.2-.25c-1.09-1.33-2.43-2.44-3.93-3.28l-.12-.08-.15-.08-.28-.15c-.2-.09-.39-.18-.59-.27-.39-.17-.8-.32-1.21-.45-.82-.26-1.67-.44-2.52-.54-.43-.05-.86-.08-1.29-.09-.43,0-.87,0-1.3.04-.87.07-1.72.22-2.56.45l-.16.04-.16.05c-.1.03-.21.06-.31.1s-.21.07-.31.11l-.32.12c-.19.07-.38.16-.58.25-.1.04-.2.1-.3.15l-.29.15c-.78.4-1.52.89-2.2,1.44-2.77,2.24-4.55,5.48-4.97,9.02l-.02.16v.16s-.04.33-.04.33l-.05.68v.17s-.01.02-.01.02c.02,0-.07.32-.23.35l-.04.02-.08.04-.3.15-.61.3-.61.3c-.2.1-.39.2-.58.31-.38.22-.75.46-1.1.72-4.28,3.28-5.1,9.41-1.82,13.7.1.13.2.25.3.37,1.15,1.36,2.64,2.38,4.32,2.97,1.68.59,3.5.71,5.25.35.43-.09.86-.21,1.28-.36.11-.04.21-.08.31-.12s.2-.08.31-.13.2-.09.3-.14l.3-.15.61-.29.15-.08s.13-.06.2,0c.11.08.06.05.08.06l.03.03.06.06.23.25.46.5.23.23c.08.08.17.15.24.23.66.59,1.43,1.06,2.26,1.38.83.32,1.71.49,2.6.49.37,0,.74-.04,1.1-.11.18-.03.36-.07.54-.11s.35-.1.53-.15c.34-.12.68-.27,1.01-.43.32-.17.63-.36.92-.57,1.17-.86,2.06-2.04,2.56-3.4.12-.33.22-.68.29-1.03.07-.35.12-.7.13-1.06.01-.18,0-.35,0-.53s-.01-.35-.04-.53-.04-.35-.07-.53-.07-.35-.11-.53l-.12-.55-.03-.14v-.07s-.02-.02-.02-.02c-.01-.05-.01-.09,0-.14,0-.09.04-.17.09-.25.03-.05.07-.09.11-.12h.03s.22-.19.22-.19l.44-.35.11-.09.06-.04s.05-.04.07-.05l.22-.17c.58-.45,1.14-.92,1.67-1.43,1.06-1.02,2.01-2.14,2.84-3.34.2-.3.41-.61.62-.92s.41-.62.61-.94c.4-.63.78-1.25,1.11-1.89.33-.63.62-1.29.85-1.96.23-.68.4-1.37.53-2.07l.05-.27c.02-.09.03-.18.04-.27.06-.83.08-1.67.06-2.5M41.77,43.87c-.07.41-.19.81-.34,1.2-.31.78-.78,1.49-1.38,2.08-.6.58-1.32,1.03-2.11,1.32-.39.14-.79.24-1.2.31-.4.07-.81.09-1.22.06-.1-.01-.2-.02-.3-.03l-.15-.02c-.05,0-.1-.02-.15-.03l-.3-.06-.29-.08c-.2-.05-.38-.13-.57-.18-.05-.02-.09-.03-.14-.06l-.14-.06c-.09-.04-.18-.07-.27-.11l-.27-.13c-.09-.04-.17-.1-.26-.14-.18-.1-.34-.21-.5-.32-.32-.23-.62-.49-.89-.77-.54-.56-.96-1.23-1.24-1.96-.29-.72-.43-1.49-.41-2.27.02-.77.19-1.53.49-2.23.31-.7.74-1.33,1.29-1.86.54-.53,1.18-.94,1.89-1.22.7-.28,1.45-.41,2.2-.39h.28s.14-.02.14-.02c.05,0,.09,0,.14,0h.28c.1.01.19.02.28.03.19.01.38.05.57.08.1.02.18.04.28.07.09.02.19.05.28.08l.27.1c.09.03.18.08.27.11.18.08.35.17.52.27.34.2.66.43.96.69.92.8,1.58,1.87,1.88,3.05.1.4.16.81.18,1.23.02.41,0,.82-.07,1.23M47.75,29.73c-.18,1.47-.62,2.9-1.29,4.22-.33.66-.72,1.28-1.17,1.87-.11.15-.23.29-.34.43l-.36.42c-.13.13-.25.27-.38.4l-.2.19c-.06.06-.13.13-.2.18l-.04.04c-.11.08-.22.17-.32.24s-.22.17-.32.23l-.64.46-.32.23h-.02c-.07.07-.16.11-.25.13-.15.03-.3.01-.43-.06-.13-.09-.13-.1-.13-.1l-.02-.02-.07-.07-.14-.14-.55-.56c-.09-.09-.18-.18-.27-.27l-.13-.13s-.09-.08-.14-.12l-.14-.12-.15-.11c-.05-.04-.09-.08-.15-.11l-.15-.11c-.4-.28-.82-.52-1.27-.71-1.14-.48-2.38-.64-3.6-.48-.12.01-.24.03-.36.06l-.18.03-.18.04c-3.53.83-5.86,4.19-5.4,7.78.03.24.08.51.12.76l.1.58v.1s.01,0,.01,0c.01.06,0,.12-.01.18-.02.09-.08.16-.16.21l-.04.02-.04.02-.71.33-.35.17-.18.08-.19.08c-.5.2-1.02.35-1.55.45-.54.1-1.08.15-1.63.15-.13,0-.27-.01-.4-.01h-.2s-.2-.02-.2-.02l-.41-.04-.4-.08-.2-.04-.2-.05-.39-.1-.39-.13c-.06-.02-.13-.04-.19-.07l-.19-.08c-.5-.21-.98-.46-1.44-.75l-.34-.23s-.06-.04-.08-.06l-.08-.06-.16-.13c-.22-.17-.41-.35-.61-.54-.1-.09-.19-.2-.28-.29l-.16-.11c-.04-.05-.09-.1-.13-.16l-.26-.32c-.08-.11-.16-.22-.23-.33l-.12-.17-.11-.17-.21-.35-.19-.36-.09-.18-.08-.18c-1.32-3.05-.72-6.58,1.53-9.03.36-.39.77-.75,1.2-1.06.44-.31.9-.58,1.38-.81.36-.19.73-.35,1.11-.49.19-.07.39-.13.58-.18.2-.06.39-.1.6-.14.11-.02.22-.04.34-.06v-.02c-.01-.1-.04-.2-.05-.3-.02-.2-.06-.4-.07-.6l-.02-.3v-.3c-.04-.81.01-1.63.15-2.43.14-.81.35-1.6.65-2.36.03-.1.08-.19.11-.28l.12-.28.13-.29c.04-.1.08-.19.13-.28l.14-.27c.04-.09.1-.18.15-.27.1-.18.21-.36.32-.53.05-.09.11-.17.17-.26s.11-.17.17-.26l.18-.25.09-.13.1-.12.19-.24.2-.23c.13-.16.27-.31.41-.46.57-.6,1.2-1.15,1.88-1.63.08-.06.17-.11.26-.18s.17-.11.26-.17l.27-.16.13-.08.14-.08.27-.15c.09-.05.18-.1.27-.14l.53-.28h0s.04-.03.04-.03c2.73-1.2,5.79-1.38,8.65-.53l.26.07.13.04.13.05.53.19.13.05.13.06.25.11.25.11.13.06s.08.04.13.06l.49.26.12.06s.08.05.12.07l.24.15.24.15c.08.05.16.1.23.15l.46.32c.15.1.3.23.44.34l.22.18c.07.06.15.12.22.18l.41.38.1.1.05.05.03.05.19.2c.51.54.98,1.12,1.39,1.74l.29.47.15.24c.05.08.09.16.13.25l.13.25c.04.08.08.17.12.25l.12.25.11.26c.29.69.52,1.4.69,2.12.34,1.45.41,2.95.22,4.43"/>
      <path id="Path_296" class="st0" d="M43.81,55.22c1.3,0,2.35-1.05,2.35-2.35s-1.05-2.35-2.35-2.35-2.35,1.05-2.35,2.35,1.05,2.35,2.35,2.35h0"/>
    </g>
  </g>
</svg>