<?xml version="1.0" encoding="UTF-8"?>
<svg id="Layer_1" xmlns="http://www.w3.org/2000/svg" version="1.1" viewBox="0 0 38.89 38.89">
  <!-- Generator: Adobe Illustrator 29.3.1, SVG Export Plug-In . SVG Version: 2.1.0 Build 151)  -->
  <defs>
    <style>
      .st0 {
        fill: none;
      }

      .st1 {
        fill: #ca9ce1;
        isolation: isolate;
        opacity: .25;
      }

      .st2 {
        fill: #ffc500;
      }
    </style>
  </defs>
  <circle id="Ellipse_10" class="st1" cx="19.29" cy="19.1" r="15"/>
  <g id="Frame">
    <rect id="Frame-2" class="st0" x="98.08" y="59.92" width="16" height="16"/>
    <path id="Vector" class="st0" d="M98.08,59.92h16v16h-16v-16Z"/>
    <path id="Vector-2" class="st2" d="M112.86,63.7c-.37.56-.84,1.05-1.39,1.44,0,.12,0,.24,0,.36.03,4.35-3.47,7.9-7.82,7.93-.04,0-.07,0-.11,0-1.52,0-3-.43-4.28-1.25,1.47.18,2.96-.24,4.13-1.16-1.19-.02-2.24-.8-2.6-1.94.42.08.85.06,1.26-.05-1.3-.26-2.23-1.4-2.24-2.73v-.03c.39.22.82.34,1.26.35-1.23-.82-1.6-2.45-.86-3.72.7.86,1.57,1.57,2.56,2.07.99.5,2.07.79,3.18.85-.35-1.5.58-3,2.08-3.35.97-.23,1.99.08,2.67.81.62-.12,1.22-.35,1.77-.68-.21.65-.64,1.19-1.23,1.54.55-.07,1.09-.21,1.6-.44h0Z"/>
  </g>
  <rect id="Frame-21" data-name="Frame-2" class="st0" x="11.44" y="11.43" width="16" height="16"/>
  <path id="Vector1" data-name="Vector" class="st0" d="M11.44,11.43h16v16H11.44v-16Z"/>
  <path id="Vector-21" data-name="Vector-2" class="st2" d="M26.11,19.47c0,3.28-2.39,6.07-5.62,6.59v-4.66h1.55l.3-1.93h-1.85v-1.25c-.05-.53.34-1,.87-1.05.07,0,.14,0,.22,0h.84v-1.64c-.5-.08-1-.13-1.5-.13-1.3-.1-2.43.87-2.52,2.17-.01.14,0,.29,0,.43v1.47h-1.69v1.93h1.69v4.66c-3.64-.57-6.12-3.99-5.54-7.63.57-3.64,3.99-6.12,7.63-5.54,3.24.51,5.63,3.3,5.63,6.58h0Z"/>
</svg>