<?xml version="1.0" encoding="UTF-8"?>
<svg id="Layer_1" xmlns="http://www.w3.org/2000/svg" version="1.1" xmlns:xlink="http://www.w3.org/1999/xlink" viewBox="0 0 107.74 88.96">
  <!-- Generator: Adobe Illustrator 29.3.1, SVG Export Plug-In . SVG Version: 2.1.0 Build 151)  -->
  <defs>
    <style>
      .st0 {
        fill: none;
      }

      .st1 {
        fill: #231f20;
      }

      .st2 {
        clip-path: url(#clippath);
      }
    </style>
    <clipPath id="clippath">
      <rect class="st0" x=".93" y="3.63" width="105.38" height="82.38"/>
    </clipPath>
  </defs>
  <g class="st2">
    <g id="Group_160">
      <path id="Path_283" class="st1" d="M77.52,61.33c-4.47-2.75-9.28-4.89-14.32-6.38-.39-1.98-.62-4-.68-6.02.91-.94,1.81-1.93,2.76-2.87,1.81-1.78,2.01-4.32,2.66-7.6.71.32,1.55,0,1.88-.71,0,0,0,0,0,0,.19-.34.32-.72.38-1.11l.87-4.15c.28-1.03.37-2.09.29-3.15-.03-.51-.27-.98-.65-1.31-.39-.3-.95-.22-1.25.17-.02.02-.03.05-.05.07,0,0,.66-6.51.66-5.96.66-.85.94-1.93.8-2.99-.18-1.03-.51-2.04-.68-3.07-.09-1.15-.25-2.29-.49-3.41-.57-1.53-1.48-2.9-2.68-4-.78-.84-1.62-1.63-2.51-2.36-1.77-1.49-3.92-2.46-6.21-2.78-.73-.07-1.47-.09-2.21-.08h-2.48s-2.48,0-2.48,0c-.74-.02-1.48,0-2.21.08-2.29.32-4.44,1.29-6.21,2.78-.89.73-1.72,1.52-2.51,2.36-1.2,1.1-2.11,2.47-2.68,4-.24,1.13-.4,2.27-.49,3.41-.16,1.03-.49,2.04-.68,3.07-.14,1.06.15,2.13.81,2.98,0-.55.66,5.96.66,5.96-.26-.42-.81-.54-1.22-.28-.02.01-.05.03-.07.05-.39.33-.62.8-.65,1.31-.09,1.06.01,2.13.29,3.15.29,1.38.58,2.77.87,4.15.06.39.19.76.38,1.11.32.71,1.16,1.03,1.88.71,0,0,0,0,0,0,.65,3.28.85,5.82,2.66,7.6.95.94,1.85,1.92,2.76,2.87-.06,2.02-.29,4.03-.68,6.02-5.03,1.49-9.85,3.63-14.32,6.39-3.9,2.43-5.6,7.78-6.2,13.16-.36,3.22,1.46,6.28,4.46,7.51,4.51,1.84,12.58,4.01,25.63,4.01s21.12-2.17,25.63-4.01c3-1.23,4.82-4.29,4.46-7.51-.59-5.38-2.3-10.74-6.2-13.17"/>
      <path id="Path_284" class="st1" d="M28.06,58.65c3.7-2.27,7.62-4.16,11.71-5.63-2.06-.95-4.19-1.74-6.37-2.38-.32-1.62-.51-3.27-.56-4.92.74-.77,1.48-1.58,2.26-2.34.62-.63,1.07-1.4,1.32-2.25-.67-.41-1.23-.98-1.64-1.65-.42-.67-.7-1.41-.83-2.19-.25-1.21-.51-2.43-.76-3.64l-.11-.51c-.36-1.38-.47-2.82-.32-4.24.13-1.23.71-2.37,1.64-3.2-.09-.89-.18-1.68-.24-2.21-.83-1.42-1.15-3.09-.9-4.72.1-.59.24-1.12.37-1.65.12-.49.23-.95.3-1.37.05-.31.08-.67.12-1.05.06-.94.21-1.86.46-2.77.07-.24.15-.47.24-.7-.09-.07-.18-.15-.26-.22-1.44-1.22-3.2-2.01-5.08-2.27-.6-.06-1.2-.08-1.81-.06h-2.03s-2.03,0-2.03,0c-.6-.01-1.21,0-1.81.06-1.87.26-3.63,1.05-5.08,2.27-.72.6-1.41,1.24-2.05,1.93-.98.9-1.73,2.02-2.19,3.27-.19.92-.33,1.85-.4,2.79-.13.85-.4,1.67-.55,2.51-.11.87.12,1.74.66,2.44,0-.45.54,4.87.54,4.87-.21-.34-.66-.44-1-.23-.02.01-.04.03-.06.04-.32.27-.51.66-.54,1.07-.07.87.01,1.74.24,2.58.24,1.13.47,2.26.71,3.39.05.32.15.62.31.9.26.58.95.84,1.53.58,0,0,0,0,0,0,.53,2.68.69,4.76,2.17,6.21.78.76,1.51,1.57,2.26,2.34-.05,1.65-.24,3.3-.56,4.92-4.11,1.22-8.05,2.97-11.7,5.22-3.19,1.98-4.58,6.36-5.06,10.76-.29,2.63,1.2,5.13,3.64,6.14,3.04,1.24,8.07,2.67,15.73,3.13-.03-.58-.02-1.16.05-1.73.28-2.95.98-5.84,2.09-8.58,1.09-2.83,3.04-5.25,5.57-6.92"/>
      <path id="Path_285" class="st1" d="M106.27,66.62c-.48-4.4-1.88-8.78-5.06-10.76-3.65-2.25-7.59-4-11.7-5.21-.32-1.62-.51-3.27-.56-4.92.74-.77,1.48-1.58,2.26-2.34,1.48-1.45,1.65-3.53,2.17-6.21.58.26,1.27,0,1.54-.58,0,0,0,0,0,0,.16-.28.26-.58.31-.9.24-1.13.47-2.26.71-3.39.23-.84.31-1.71.24-2.58-.03-.41-.22-.8-.54-1.07-.32-.24-.77-.18-1.02.14-.01.02-.03.04-.04.06,0,0,.54-5.32.54-4.87.54-.69.77-1.57.66-2.44-.15-.84-.42-1.67-.55-2.51-.07-.94-.21-1.87-.4-2.79-.46-1.25-1.21-2.37-2.19-3.27-.64-.69-1.33-1.33-2.05-1.93-1.44-1.22-3.2-2.01-5.08-2.27-.6-.06-1.2-.08-1.81-.06h-2.03s-2.03,0-2.03,0c-.6-.01-1.21,0-1.81.06-1.87.26-3.63,1.05-5.08,2.27-.09.07-.18.15-.26.22.09.23.17.46.24.7.25.9.4,1.83.46,2.77.04.38.07.74.12,1.05.07.41.18.88.3,1.36.13.52.26,1.06.37,1.65.25,1.63-.07,3.29-.9,4.72-.06.53-.15,1.32-.24,2.21.92.82,1.5,1.96,1.63,3.19.15,1.42.04,2.86-.32,4.24l-.11.51c-.25,1.21-.51,2.43-.76,3.64-.13.78-.41,1.52-.83,2.19-.29.47-.66.9-1.09,1.26-.17.14-.36.27-.55.39.25.85.7,1.62,1.32,2.25.78.76,1.51,1.57,2.26,2.34-.05,1.65-.24,3.3-.56,4.92-2.18.63-4.31,1.43-6.37,2.38,4.09,1.47,8.01,3.35,11.71,5.63,2.53,1.67,4.48,4.09,5.57,6.92,1.11,2.74,1.82,5.64,2.09,8.58.06.57.08,1.15.05,1.73,7.66-.46,12.69-1.88,15.73-3.13,2.45-1,3.94-3.51,3.64-6.14"/>
    </g>
  </g>
</svg>