<?xml version="1.0" encoding="UTF-8"?>
<svg id="Layer_1" xmlns="http://www.w3.org/2000/svg" version="1.1" viewBox="0 0 87.83 84.77">
  <!-- Generator: Adobe Illustrator 29.3.1, SVG Export Plug-In . SVG Version: 2.1.0 Build 151)  -->
  <defs>
    <style>
      .st0 {
        fill-opacity: 0;
      }

      .st0, .st1 {
        fill: #322b3c;
      }

      .st2 {
        fill: none;
      }

      .st3 {
        fill: #ca9ce1;
      }
    </style>
  </defs>
  <rect id="Rectangle_5983" class="st3" x="4.53" y="3.51" width="77.74" height="77.74" rx="8" ry="8"/>
  <g id="vuesax_bold_teacher">
    <rect id="vuesax_bold_teacher_Background_" class="st2" x="20.65" y="19.63" width="45.51" height="45.51"/>
    <g id="vuesax_bold_teacher-2">
      <path id="Vector" class="st1" d="M55.5,50.88v2.45c-.12,2.56-1.74,4.81-4.13,5.74l-6.05,2.01c-1.25.36-2.58.36-3.83,0l-6.05-2.01c-2.4-.92-4.02-3.18-4.13-5.74v-2.46c0-1.05.86-1.9,1.91-1.89.36,0,.71.1,1.01.3l3.91,2.54c1.58,1.01,3.42,1.53,5.29,1.5,1.87.03,3.71-.49,5.29-1.5l3.85-2.52c.88-.57,2.06-.33,2.63.55.2.31.31.67.31,1.04Z"/>
      <path id="Vector-2" class="st1" d="M47.18,24.43c-2.31-1.35-5.16-1.35-7.47,0l-11.41,7.45c-2.8,1.82-3.59,5.56-1.76,8.36.46.7,1.06,1.31,1.76,1.76l3.03,1.97,8.38,5.46c2.31,1.35,5.16,1.35,7.47,0l8.32-5.46,2.6-1.71v5.8c0,.79.64,1.42,1.42,1.42s1.42-.64,1.42-1.42v-9.33c.83-2.57-.16-5.37-2.41-6.86l-11.36-7.45Z"/>
      <path id="Vector-3" class="st0" d="M20.65,65.14V19.63h45.51v45.51H20.65Z"/>
    </g>
  </g>
</svg>