<?xml version="1.0" encoding="UTF-8"?>
<svg id="Layer_1" xmlns="http://www.w3.org/2000/svg" version="1.1" viewBox="0 0 87.83 84.77">
  <!-- Generator: Adobe Illustrator 29.3.1, SVG Export Plug-In . SVG Version: 2.1.0 Build 151)  -->
  <defs>
    <style>
      .st0 {
        fill-opacity: 0;
      }

      .st0, .st1 {
        fill: #322b3c;
      }

      .st2 {
        fill: none;
      }

      .st3 {
        fill: #ca9ce1;
      }
    </style>
  </defs>
  <rect id="Rectangle_5983" class="st3" x="4.6" y="3.03" width="77.78" height="77.78" rx="8" ry="8" transform="translate(-2.83 3.15) rotate(-4.01)"/>
  <g id="vuesax_bold_book">
    <rect id="vuesax_bold_book_Background_" class="st2" x="20.71" y="19.15" width="45.53" height="45.53" transform="translate(-2.83 3.14) rotate(-4.01)"/>
    <g id="vuesax_bold_book-2">
      <path id="Vector" class="st1" d="M63.02,49.56c.08,1.9-1.21,3.58-3.07,3.98l-.58.12c-3.73.89-7.35,2.21-10.77,3.95-.94.46-2.07.07-2.53-.87-.11-.22-.17-.46-.19-.71l-1.85-26.32c-.04-.71.3-1.38.9-1.76,3.69-2.27,7.75-3.86,11.99-4.7h.11c2.27-.17,4.23,1.54,4.39,3.8,0,0,0,0,0,0l1.58,22.5Z"/>
      <path id="Vector-2" class="st1" d="M40.55,58.15c-3.63-1.24-7.39-2.05-11.21-2.41l-.59-.04c-1.89-.14-3.41-1.62-3.59-3.51l-1.57-22.49c-.16-2.26,1.55-4.23,3.81-4.39,0,0,0,0,0,0h.13c4.32.23,8.56,1.24,12.53,2.97.65.29,1.08.91,1.12,1.62l1.84,26.31c.08,1.05-.71,1.96-1.76,2.03-.04,0-.08,0-.12,0-.2,0-.4-.04-.59-.1Z"/>
      <path id="Vector-3" class="st0" d="M22.33,66.2l-3.19-45.42,45.42-3.19,3.19,45.42-45.42,3.19Z"/>
    </g>
  </g>
</svg>