<?xml version="1.0" encoding="UTF-8"?>
<svg id="Layer_1" xmlns="http://www.w3.org/2000/svg" version="1.1" viewBox="0 0 38.89 38.89">
  <!-- Generator: Adobe Illustrator 29.3.1, SVG Export Plug-In . SVG Version: 2.1.0 Build 151)  -->
  <defs>
    <style>
      .st0 {
        fill: #fff;
      }

      .st1 {
        fill: #ca9ce1;
      }
    </style>
  </defs>
  <g id="Group_166">
    <circle id="bg" class="st1" cx="19.29" cy="19.1" r="17.77"/>
    <path id="call" class="st0" d="M27.37,23.09l-2.39-2.38c-.61-.63-1.62-.64-2.25-.03-.18.18-.32.39-.4.63-.28.76-1.08,1.2-1.87,1.02-2.06-.74-3.69-2.36-4.43-4.42-.22-.8.23-1.63,1.02-1.88.83-.28,1.28-1.17,1-2-.08-.24-.22-.46-.4-.63l-2.39-2.38c-.65-.6-1.65-.6-2.3,0l-1.62,1.62c-1.62,1.7.17,6.2,4.17,10.2,4,4,8.52,5.86,10.22,4.16l1.62-1.61c.59-.65.59-1.64,0-2.29Z"/>
  </g>
</svg>