<?xml version="1.0" encoding="UTF-8"?>
<svg id="Layer_1" xmlns="http://www.w3.org/2000/svg" version="1.1" xmlns:xlink="http://www.w3.org/1999/xlink" viewBox="0 0 107.74 88.96">
  <!-- Generator: Adobe Illustrator 29.3.1, SVG Export Plug-In . SVG Version: 2.1.0 Build 151)  -->
  <defs>
    <style>
      .st0 {
        fill: none;
      }

      .st1 {
        fill: #231f20;
      }

      .st2 {
        clip-path: url(#clippath);
      }
    </style>
    <clipPath id="clippath">
      <rect class="st0" x="13.98" y="1.22" width="79.15" height="87.05"/>
    </clipPath>
  </defs>
  <g class="st2">
    <g id="Group_158">
      <path id="Path_279" class="st1" d="M67.56,61.65v-3.76c0-4.16-3.37-7.53-7.53-7.53h-13.17c-4.16,0-7.53,3.37-7.53,7.53v3.76h28.23Z"/>
      <path id="Path_280" class="st1" d="M60.03,40.01c0-3.64-2.95-6.59-6.59-6.59-3.64,0-6.59,2.95-6.59,6.59,0,3.64,2.95,6.59,6.59,6.59h0c3.64,0,6.59-2.95,6.59-6.59h0"/>
      <path id="Path_281" class="st1" d="M53.55,1.22l-15.83,12.27,15.83,12.27V1.22Z"/>
      <path id="Path_282" class="st1" d="M53.55,9.12c-1.32,0-2.64.07-3.96.2v7.99c17.39-2.24,33.3,10.05,35.54,27.44,2.24,17.39-10.05,33.3-27.44,35.54-17.39,2.24-33.3-10.05-35.54-27.44-1.31-10.15,2.37-20.32,9.86-27.29l-5.34-5.82c-15.96,14.88-16.84,39.88-1.96,55.84,14.88,15.96,39.88,16.84,55.84,1.96,15.96-14.88,16.84-39.88,1.96-55.84-7.49-8.03-17.98-12.59-28.96-12.57"/>
    </g>
  </g>
</svg>