<?xml version="1.0" encoding="UTF-8"?>
<svg id="Layer_1" xmlns="http://www.w3.org/2000/svg" version="1.1" viewBox="0 0 73.36 27.78">
  <!-- Generator: Adobe Illustrator 29.3.1, SVG Export Plug-In . SVG Version: 2.1.0 Build 151)  -->
  <defs>
    <style>
      .st0 {
        fill: #aa98d7;
      }

      .st1 {
        fill: #c4c4c4;
      }
    </style>
  </defs>
  <g id="rating">
    <path id="Star_1" class="st0" d="M9.18,8.39l1.38,4.09,4.12.11-3.28,2.64,1.17,4.16-3.4-2.46-3.4,2.46,1.18-4.16-3.28-2.64,4.12-.11,1.38-4.09Z"/>
    <path id="Star_2" class="st0" d="M23.18,8.39l1.38,4.09,4.12.11-3.28,2.64,1.17,4.16-3.4-2.46-3.4,2.46,1.18-4.16-3.28-2.64,4.12-.11,1.38-4.09Z"/>
    <path id="Star_3" class="st0" d="M36.18,8.39l1.38,4.09,4.12.11-3.28,2.64,1.17,4.16-3.4-2.46-3.4,2.46,1.18-4.16-3.28-2.64,4.12-.11,1.38-4.09Z"/>
    <path id="Star_4" class="st0" d="M50.18,8.39l1.38,4.09,4.12.11-3.28,2.64,1.17,4.16-3.4-2.46-3.4,2.46,1.18-4.16-3.28-2.64,4.12-.11,1.38-4.09Z"/>
    <path id="Star_5" class="st1" d="M64.18,8.39l1.38,4.09,4.12.11-3.28,2.64,1.17,4.16-3.4-2.46-3.4,2.46,1.18-4.16-3.28-2.64,4.12-.11,1.38-4.09Z"/>
  </g>
</svg>