<?xml version="1.0" encoding="UTF-8"?>
<svg id="Layer_1" xmlns="http://www.w3.org/2000/svg" version="1.1" xmlns:xlink="http://www.w3.org/1999/xlink" viewBox="0 0 107.74 87.27">
  <!-- Generator: Adobe Illustrator 29.3.1, SVG Export Plug-In . SVG Version: 2.1.0 Build 151)  -->
  <defs>
    <style>
      .st0 {
        fill: none;
      }

      .st1 {
        fill: #231f20;
      }

      .st2 {
        clip-path: url(#clippath);
      }
    </style>
    <clipPath id="clippath">
      <rect class="st0" x="12.62" y="2.84" width="82" height="82"/>
    </clipPath>
  </defs>
  <g class="st2">
    <g id="Group_156">
      <path id="Path_273" class="st1" d="M53.62,84.84c-4.07,0-7.38-2.42-7.38-5.4s3.31-5.4,7.38-5.4,7.37,2.42,7.37,5.4-3.31,5.4-7.37,5.4M53.62,75.77c-3.05,0-5.64,1.68-5.64,3.66s2.58,3.66,5.64,3.66,5.64-1.68,5.64-3.66-2.58-3.66-5.64-3.66"/>
      <path id="Path_274" class="st1" d="M42.97,78.73c-.06,0-.13,0-.19-.02-4.8-.9-9.37-2.78-13.42-5.52-3.57-2.64-5.45-5.86-5.45-9.34,0-.48.39-.87.87-.87.48,0,.87.39.87.87h0c0,5.85,6.54,10.77,17.5,13.17.47.1.77.57.66,1.03-.09.4-.44.68-.85.68"/>
      <path id="Path_275" class="st1" d="M24.15,61.56h-4.9c-3.66,0-6.63-2.98-6.63-6.64v-10.51c0-3.66,2.97-6.63,6.64-6.64h4.9c.83,0,1.5.67,1.5,1.5v20.79c0,.83-.67,1.5-1.5,1.5M19.26,39.52c-2.71,0-4.9,2.19-4.9,4.9v10.5c0,2.71,2.19,4.9,4.9,4.9h4.66v-20.31h-4.66ZM24.16,39.52h0Z"/>
      <path id="Path_276" class="st1" d="M87.98,61.56h-4.9c-.83,0-1.5-.67-1.5-1.5v-20.79c0-.83.67-1.5,1.5-1.5h4.9c3.66,0,6.63,2.97,6.64,6.64v10.51c0,3.66-2.97,6.63-6.64,6.64M83.32,59.82h4.66c2.71,0,4.9-2.19,4.9-4.9v-10.51c0-2.71-2.19-4.9-4.9-4.9h-4.66v20.31Z"/>
      <path id="Path_277" class="st1" d="M24.56,36.81h-.07c-.48-.04-.83-.46-.79-.94,1.44-16.52,16.01-28.75,32.53-27.31,14.5,1.26,26,12.74,27.3,27.23.05.48-.3.91-.77.96-.48.05-.91-.3-.96-.77,0,0,0-.02,0-.03-1.23-14.63-13.5-25.85-28.18-25.77-14.65.08-26.84,11.25-28.19,25.84-.04.45-.41.79-.86.79"/>
      <path id="Path_278" class="st1" d="M18.79,36.79h-.07c-.48-.04-.84-.45-.8-.93,0,0,0,0,0,0C19.46,16.14,36.7,1.41,56.41,2.95c17.55,1.37,31.5,15.31,32.9,32.86.04.48-.32.9-.8.93s-.9-.32-.93-.8c-1.49-18.76-17.9-32.75-36.66-31.26-16.7,1.33-29.96,14.6-31.26,31.3-.04.45-.41.8-.87.8"/>
    </g>
  </g>
</svg>