<?xml version="1.0" encoding="UTF-8"?>
<svg id="Layer_1" xmlns="http://www.w3.org/2000/svg" version="1.1" xmlns:xlink="http://www.w3.org/1999/xlink" viewBox="0 0 70.47 70.47">
  <!-- Generator: Adobe Illustrator 29.3.1, SVG Export Plug-In . SVG Version: 2.1.0 Build 151)  -->
  <defs>
    <style>
      .st0 {
        isolation: isolate;
        opacity: .19;
      }

      .st0, .st1 {
        fill: #d9b7e7;
      }

      .st2 {
        fill: #e3c9eb;
      }

      .st3 {
        fill: #fff;
      }

      .st4 {
        opacity: .66;
      }

      .st5 {
        fill: #422b70;
      }

      .st6 {
        fill: none;
      }

      .st7 {
        clip-path: url(#clippath-1);
      }

      .st8 {
        fill: #b8caf5;
      }

      .st9 {
        fill: #dde7fe;
      }

      .st10 {
        clip-path: url(#clippath);
      }
    </style>
    <clipPath id="clippath">
      <rect class="st6" x="1.06" y="1.57" width="68" height="68" rx="10" ry="10"/>
    </clipPath>
    <clipPath id="clippath-1">
      <rect class="st6" x="20.38" y="9.45" width="29.38" height="52.24"/>
    </clipPath>
  </defs>
  <g id="Icon-bg" class="st4">
    <g id="Color_Secondary">
      <rect id="Mask-2" class="st0" x="1.06" y="1.57" width="68" height="68" rx="10" ry="10"/>
      <g class="st10">
        <g id="Color_Secondary-2">
          <g id="Color_Secondary-3">
            <rect id="Rectangle" class="st1" x="1.06" y="1.57" width="68" height="68"/>
          </g>
        </g>
      </g>
    </g>
  </g>
  <g id="Group_153">
    <g class="st7">
      <g id="Mask_Group_152">
        <path id="Path_223" class="st9" d="M20.38,50.62v-28.67c0-6.12,4.96-11.08,11.08-11.08h0s7.21,0,7.21,0c6.12,0,11.08,4.96,11.08,11.08h0v28.67c0,6.12-4.96,11.08-11.08,11.08h-7.21c-6.12,0-11.08-4.96-11.08-11.08t0,0"/>
        <path id="Path_224" class="st8" d="M20.38,58.26V14.3c0-1.9,1.54-3.43,3.43-3.43h22.51c1.9,0,3.43,1.54,3.43,3.43v43.96c0,1.9-1.54,3.43-3.43,3.43h-22.51c-1.9,0-3.43-1.54-3.43-3.43"/>
        <path id="Path_225" class="st5" d="M20.38,56.94V12.79c0-1.85,1.5-3.34,3.34-3.34h22.69c1.84,0,3.34,1.5,3.34,3.34v44.14c0,1.84-1.5,3.34-3.34,3.34h-22.69c-1.85,0-3.34-1.5-3.34-3.34"/>
        <rect id="Rectangle_58" class="st2" x="30.37" y="13.79" width="15.65" height="1.01"/>
        <rect id="Rectangle_59" class="st2" x="30.37" y="15.75" width="15.65" height="1.01"/>
        <rect id="Rectangle_60" class="st2" x="30.37" y="17.71" width="11.11" height="1.01"/>
        <path id="Path_226" class="st3" d="M26.28,18.43c-1.2,0-2.17-.97-2.17-2.17,0-1.2.97-2.17,2.17-2.17,1.2,0,2.17.97,2.17,2.17h0c0,1.2-.97,2.17-2.17,2.17M26.28,14.66c-.88,0-1.59.71-1.59,1.59s.71,1.59,1.59,1.59,1.59-.71,1.59-1.59c0-.88-.71-1.59-1.59-1.6"/>
        <path id="Path_227" class="st2" d="M26.28,17.74l-2.06-2.31c-.18-.2-.16-.5.04-.68.2-.18.5-.16.68.04l1.25,1.4,1.9-2.68c.15-.22.46-.27.67-.11s.27.46.11.67l-2.6,3.68Z"/>
        <rect id="Rectangle_61" class="st2" x="30.37" y="21.41" width="15.65" height="1.01"/>
        <rect id="Rectangle_62" class="st2" x="30.37" y="23.37" width="15.65" height="1.01"/>
        <rect id="Rectangle_63" class="st2" x="30.37" y="25.33" width="11.11" height="1.01"/>
        <path id="Path_228" class="st3" d="M26.28,26.05c-1.2,0-2.17-.97-2.17-2.17s.97-2.17,2.17-2.17c1.2,0,2.17.97,2.17,2.17,0,1.2-.97,2.17-2.17,2.17M26.28,22.27c-.88,0-1.59.71-1.59,1.59s.71,1.59,1.59,1.59,1.59-.71,1.59-1.59h0c0-.88-.72-1.59-1.59-1.59"/>
        <path id="Path_229" class="st2" d="M26.28,25.36l-2.06-2.31c-.18-.2-.16-.5.04-.68.2-.18.5-.16.68.04h0l1.25,1.4,1.9-2.68c.15-.22.46-.27.67-.11s.27.46.11.67h0l-2.6,3.68Z"/>
        <rect id="Rectangle_64" class="st2" x="30.37" y="29.02" width="15.65" height="1.01"/>
        <rect id="Rectangle_65" class="st2" x="30.37" y="30.98" width="15.65" height="1.01"/>
        <rect id="Rectangle_66" class="st2" x="30.37" y="32.94" width="11.11" height="1.01"/>
        <path id="Path_230" class="st3" d="M26.28,33.66c-1.2,0-2.17-.97-2.17-2.17,0-1.2.97-2.17,2.17-2.17s2.17.97,2.17,2.17h0c0,1.2-.97,2.17-2.17,2.17M26.28,29.89c-.88,0-1.59.71-1.59,1.59s.71,1.59,1.59,1.59,1.59-.71,1.59-1.59c0-.88-.72-1.59-1.59-1.59"/>
        <path id="Path_231" class="st2" d="M26.28,32.97l-2.06-2.31c-.18-.2-.16-.5.04-.68.2-.18.5-.16.68.04l1.25,1.4,1.9-2.68c.15-.22.46-.27.67-.11.22.15.27.46.11.67l-2.6,3.68Z"/>
        <rect id="Rectangle_67" class="st2" x="30.37" y="36.64" width="15.65" height="1.01"/>
        <rect id="Rectangle_68" class="st2" x="30.37" y="38.6" width="15.65" height="1.01"/>
        <rect id="Rectangle_69" class="st2" x="30.37" y="40.56" width="11.11" height="1.01"/>
        <path id="Path_232" class="st3" d="M26.28,41.27c-1.2,0-2.17-.97-2.17-2.17,0-1.2.97-2.17,2.17-2.17s2.17.97,2.17,2.17h0c0,1.2-.97,2.17-2.17,2.17M26.28,37.51c-.88,0-1.59.71-1.59,1.59s.71,1.59,1.59,1.59,1.59-.71,1.59-1.59c0-.88-.72-1.59-1.59-1.59"/>
        <path id="Path_233" class="st2" d="M26.28,40.59l-2.06-2.31c-.18-.2-.16-.5.04-.68.2-.18.5-.16.68.04h0l1.25,1.4,1.9-2.68c.15-.22.46-.27.67-.11.22.15.27.46.11.67l-2.6,3.68Z"/>
        <rect id="Rectangle_70" class="st2" x="30.37" y="44.25" width="15.65" height="1.01"/>
        <rect id="Rectangle_71" class="st2" x="30.37" y="46.21" width="15.65" height="1.01"/>
        <rect id="Rectangle_72" class="st2" x="30.37" y="48.17" width="11.11" height="1.01"/>
        <path id="Path_234" class="st3" d="M26.28,48.89c-1.2,0-2.17-.97-2.17-2.17,0-1.2.97-2.17,2.17-2.17s2.17.97,2.17,2.17c0,1.2-.97,2.17-2.17,2.17M26.28,45.12c-.88,0-1.59.71-1.59,1.59s.71,1.59,1.59,1.59,1.59-.71,1.59-1.59c0-.88-.72-1.59-1.59-1.59"/>
        <path id="Path_235" class="st2" d="M26.28,48.2l-2.06-2.31c-.18-.2-.16-.5.04-.68.2-.18.5-.16.68.04l1.25,1.4,1.9-2.68c.15-.22.46-.27.67-.11s.27.46.11.67l-2.6,3.68Z"/>
        <rect id="Rectangle_73" class="st2" x="30.37" y="51.49" width="15.65" height="1.01"/>
        <rect id="Rectangle_74" class="st2" x="30.37" y="53.45" width="15.65" height="1.01"/>
        <rect id="Rectangle_75" class="st2" x="30.37" y="55.42" width="11.11" height="1.01"/>
        <path id="Path_236" class="st3" d="M26.48,56.42c-1.2,0-2.17-.97-2.17-2.17,0-1.2.97-2.17,2.17-2.17s2.17.97,2.17,2.17c0,1.2-.97,2.17-2.17,2.17M26.48,52.65c-.88,0-1.59.71-1.59,1.59s.71,1.59,1.59,1.59,1.59-.71,1.59-1.59c0-.88-.72-1.59-1.59-1.59"/>
      </g>
    </g>
  </g>
</svg>