<?xml version="1.0" encoding="UTF-8"?>
<svg id="Layer_1" xmlns="http://www.w3.org/2000/svg" version="1.1" viewBox="0 0 87.83 84.77">
  <!-- Generator: Adobe Illustrator 29.3.1, SVG Export Plug-In . SVG Version: 2.1.0 Build 151)  -->
  <defs>
    <style>
      .st0 {
        fill-opacity: 0;
      }

      .st0, .st1 {
        fill: #322b3c;
      }

      .st2 {
        fill: none;
      }

      .st3 {
        fill: #ca9ce1;
      }
    </style>
  </defs>
  <rect id="Rectangle_5983" class="st3" x="4.52" y="3.49" width="77.78" height="77.78" rx="8" ry="8" transform="translate(-1.91 82.72) rotate(-85.99)"/>
  <g id="vuesax_bold_briefcase">
    <rect id="vuesax_bold_briefcase_Background_" class="st2" x="20.64" y="19.61" width="45.53" height="45.53" transform="translate(-1.9 82.7) rotate(-85.99)"/>
    <g id="vuesax_bold_briefcase-2">
      <path id="Vector" class="st1" d="M42.55,50.95c-4.14-.29-4.77-2.42-4.82-4.21-3.6-.84-7.04-2.29-10.16-4.28-.27-.17-.55-.34-.8-.53l-1.76-1.29c-.12-.09-.19-.22-.19-.37l-.04-1.77v-.13c-.06-1.92.07-4.73,2.09-6.68,1.73-1.66,4.46-2.37,8.38-2.09l.45.03v-.09c.23-3.16.51-7.11,7.62-6.61l2.88.2c7.11.5,6.84,4.43,6.61,7.61v.07s.45.03.45.03c3.9.27,6.52,1.35,8,3.24,1.64,2.09,1.5,4.7,1.21,6.6-.03.13-.03.23-.06.34l-.16.88-.08.46c-.03.14-.11.26-.23.33l-2.5,1.41c-.1.05-.18.1-.3.15-3.52,1.74-7.32,2.81-11.23,3.17-.24,1.71-1.1,3.57-4.59,3.57-.24,0-.49,0-.77-.03Z"/>
      <path id="Vector-2" class="st1" d="M60.07,55.3c-.66,3.76-2.49,7.51-10.82,6.92l-14.42-1.01c-8.33-.58-9.61-4.55-9.74-8.35l-.16-8.03c0-.26.2-.48.46-.49.08,0,.15.01.22.05l9.58,4.56s.04.02.06.03l7.11,4.74,7.71-3.76s.04-.02.06-.02l10.67-3.52c.25-.08.52.05.6.3.02.07.03.15.02.23l-1.35,8.34Z"/>
      <path id="Vector-3" class="st0" d="M19.09,63.46l3.19-45.42,45.42,3.19-3.19,45.42-45.42-3.19Z"/>
    </g>
  </g>
</svg>