<?xml version="1.0" encoding="UTF-8"?>
<svg id="Layer_1" xmlns="http://www.w3.org/2000/svg" version="1.1" viewBox="0 0 38.89 38.89">
  <!-- Generator: Adobe Illustrator 29.3.1, SVG Export Plug-In . SVG Version: 2.1.0 Build 151)  -->
  <defs>
    <style>
      .st0 {
        fill: none;
      }

      .st1 {
        fill: #ca9ce1;
        isolation: isolate;
        opacity: .25;
      }

      .st2 {
        fill: #ffc500;
      }
    </style>
  </defs>
  <circle id="Ellipse_10" class="st1" cx="19.29" cy="19.1" r="15"/>
  <g id="Frame">
    <rect id="Frame-2" class="st0" x="98.08" y="59.92" width="16" height="16"/>
    <path id="Vector" class="st0" d="M98.08,59.92h16v16h-16v-16Z"/>
    <path id="Vector-2" class="st2" d="M112.86,63.7c-.37.56-.84,1.05-1.39,1.44,0,.12,0,.24,0,.36.03,4.35-3.47,7.9-7.82,7.93-.04,0-.07,0-.11,0-1.52,0-3-.43-4.28-1.25,1.47.18,2.96-.24,4.13-1.16-1.19-.02-2.24-.8-2.6-1.94.42.08.85.06,1.26-.05-1.3-.26-2.23-1.4-2.24-2.73v-.03c.39.22.82.34,1.26.35-1.23-.82-1.6-2.45-.86-3.72.7.86,1.57,1.57,2.56,2.07.99.5,2.07.79,3.18.85-.35-1.5.58-3,2.08-3.35.97-.23,1.99.08,2.67.81.62-.12,1.22-.35,1.77-.68-.21.65-.64,1.19-1.23,1.54.55-.07,1.09-.21,1.6-.44h0Z"/>
  </g>
  <path class="st2" d="M26.69,26.13l-5.78-8.39-.65-.95-4.13-6-.34-.5h-5.08l1.24,1.8,5.5,7.99.65.95,4.42,6.42.34.5h5.08l-1.24-1.8ZM23.45,26.78l-4.59-6.67-.65-.95-5.32-7.73h2.29l4.31,6.26.65.95,5.61,8.14h-2.29Z"/>
  <polygon class="st2" points="18.21 19.16 18.86 20.11 18.09 21.01 12.15 27.93 10.68 27.93 17.43 20.07 18.21 19.16"/>
  <polygon class="st2" points="27.31 10.28 20.91 17.73 20.13 18.63 19.48 17.68 20.25 16.78 24.59 11.73 25.85 10.28 27.31 10.28"/>
</svg>